<?xml version="1.0" standalone="no"?>
<!DOCTYPE svg PUBLIC "-//W3C//DTD SVG 20010904//EN"
 "http://www.w3.org/TR/2001/REC-SVG-20010904/DTD/svg10.dtd">
<svg version="1.0" xmlns="http://www.w3.org/2000/svg"
 width="800.000000pt" height="374.000000pt" viewBox="0 0 800.000000 374.000000"
 preserveAspectRatio="xMidYMid meet">

<g transform="translate(0.000000,374.000000) scale(0.100000,-0.100000)"
fill="#000000" stroke="none">
<path d="M2 1866 c1 -1029 3 -1854 5 -1833 l4 37 635 0 634 0 0 -35 c0 -34 1
-35 40 -35 39 0 40 1 40 35 l0 35 635 0 635 0 0 -35 c0 -34 1 -35 40 -35 39 0
40 1 40 35 l0 35 635 0 635 0 0 -35 c0 -34 1 -35 40 -35 39 0 40 1 40 35 l0
35 635 0 635 0 0 -35 c0 -34 1 -35 40 -35 39 0 40 1 40 35 l0 35 635 0 635 0
0 -35 c0 -34 1 -35 39 -35 37 0 40 2 44 33 l4 32 1 -32 2 -33 615 0 615 0 0
1835 0 1835 -620 0 -620 0 0 35 c0 34 -1 35 -40 35 -39 0 -40 -1 -40 -35 l0
-35 -635 0 -635 0 0 35 c0 34 -1 35 -40 35 -39 0 -40 -1 -40 -35 l0 -35 -632
2 -633 3 -3 33 c-3 30 -6 32 -43 32 -38 0 -39 -1 -39 -35 l0 -35 -635 0 -635
0 0 35 c0 34 -1 35 -40 35 -39 0 -40 -1 -40 -35 l0 -35 -635 0 -635 0 0 35 0
35 -646 0 c-427 0 -643 -3 -639 -10 3 -5 1 -10 -4 -10 -6 0 -11 4 -11 8 0 5
-13 9 -30 9 l-30 0 2 -1871z m53 1844 c3 -5 1 -10 -4 -10 -6 0 -11 5 -11 10 0
6 2 10 4 10 3 0 8 -4 11 -10z m1015 -23 c118 -1 -61 -3 -398 -5 -337 -1 -611
1 -609 6 5 6 451 6 1007 -1z m2455 -317 c89 -43 170 -123 215 -216 33 -66 35
-74 35 -179 0 -108 -1 -113 -38 -188 -49 -100 -114 -165 -214 -214 -75 -37
-80 -38 -182 -38 -89 0 -115 4 -161 24 -125 55 -214 149 -257 274 -22 62 -25
84 -21 162 8 135 67 246 176 328 85 64 166 89 282 84 83 -3 104 -8 165 -37z
m1230 26 c79 -21 135 -54 195 -115 93 -95 137 -216 127 -345 -7 -89 -35 -162
-92 -235 -96 -126 -216 -179 -384 -169 -170 10 -323 128 -383 296 -28 79 -29
207 -1 284 49 133 151 233 288 280 61 21 180 23 250 4z m1088 -511 c83 -22
133 -50 199 -113 234 -223 154 -618 -150 -732 -168 -64 -351 -21 -477 111 -98
102 -139 232 -118 369 40 258 297 430 546 365z m-3609 -5 c166 -27 310 -154
357 -315 21 -75 17 -198 -9 -269 -83 -226 -320 -345 -545 -276 -330 102 -424
516 -170 750 59 54 124 88 203 106 70 16 91 16 164 4z m2602 -608 c22 -13 53
-42 67 -65 l27 -41 0 -527 0 -526 -25 -37 -25 -37 30 -26 c42 -35 58 -70 125
-272 54 -163 57 -177 45 -210 -17 -48 -37 -70 -85 -92 -38 -18 -89 -19 -995
-19 -906 0 -957 1 -995 19 -101 46 -107 100 -35 317 62 187 79 223 120 257
l31 27 -22 29 c-12 17 -25 47 -28 67 -3 20 -4 262 -1 539 l5 501 25 36 c25 37
63 64 108 78 15 5 378 8 807 7 l780 -2 41 -23z m-3105 -496 c214 -46 359 -222
359 -436 0 -220 -158 -403 -382 -440 -258 -44 -508 172 -508 440 0 206 143
385 346 434 76 18 105 19 185 2z m4482 -3 c-13 -2 -35 -2 -50 0 -16 2 -5 4 22
4 28 0 40 -2 28 -4z m47 3 c0 -3 -4 -8 -10 -11 -5 -3 -10 -1 -10 4 0 6 5 11
10 11 6 0 10 -2 10 -4z m-140 -16 c0 -5 -5 -10 -11 -10 -5 0 -7 5 -4 10 3 6 8
10 11 10 2 0 4 -4 4 -10z m183 -7 c-7 -2 -19 -2 -25 0 -7 3 -2 5 12 5 14 0 19
-2 13 -5z m-312 -27 c-8 -9 -8 -16 -2 -20 5 -4 9 -15 8 -25 -1 -20 -16 -18
-50 4 -16 12 -15 14 15 34 39 24 45 26 29 7z m409 -19 l25 -32 -27 20 c-15 11
-29 26 -32 33 -10 22 9 11 34 -21z m44 -34 c-10 -7 -23 -13 -28 -13 -6 0 -3 5
7 11 18 10 18 11 0 31 l-18 21 29 -18 c26 -18 27 -20 10 -32z m-549 -50 c-10
-18 -22 -33 -27 -33 -5 0 0 13 12 29 11 16 20 33 19 38 -3 17 3 27 8 14 3 -8
-2 -29 -12 -48z m615 13 c0 -3 -4 -8 -10 -11 -5 -3 -10 -1 -10 4 0 6 5 11 10
11 6 0 10 -2 10 -4z m-590 -14 c0 -5 -7 -17 -15 -28 -14 -18 -14 -17 -4 9 12
27 19 34 19 19z m600 -23 c-7 -11 -14 -19 -16 -16 -7 7 7 37 17 37 6 0 5 -9
-1 -21z m-682 -9 c-7 -11 -17 -20 -22 -20 -5 0 -1 9 9 20 10 11 20 20 22 20 2
0 -2 -9 -9 -20z m-5 -50 c-3 -12 -8 -19 -11 -16 -5 6 5 36 12 36 2 0 2 -9 -1
-20z m-30 -5 c-3 -9 -8 -14 -10 -11 -3 3 -2 9 2 15 9 16 15 13 8 -4z m803 -77
c4 -18 7 -37 6 -41 -2 -5 2 -25 7 -44 6 -20 6 -32 1 -27 -5 5 -14 41 -20 79
-6 39 -15 74 -21 80 -5 5 -9 16 -9 25 0 21 26 -31 36 -72z m-799 20 c-3 -7 -5
-2 -5 12 0 14 2 19 5 13 2 -7 2 -19 0 -25z m500 0 c-3 -8 -6 -5 -6 6 -1 11 2
17 5 13 3 -3 4 -12 1 -19z m-480 -20 c-3 -8 -6 -5 -6 6 -1 11 2 17 5 13 3 -3
4 -12 1 -19z m293 8 c0 -11 -19 -15 -25 -6 -3 5 1 10 9 10 9 0 16 -2 16 -4z
m-329 -33 c-8 -15 -10 -15 -11 -2 0 17 10 32 18 25 2 -3 -1 -13 -7 -23z m776
5 c-3 -8 -6 -5 -6 6 -1 11 2 17 5 13 3 -3 4 -12 1 -19z m20 -10 c-3 -8 -6 -5
-6 6 -1 11 2 17 5 13 3 -3 4 -12 1 -19z m-564 -69 c-5 -5 -7 7 -4 29 5 34 6
35 9 8 2 -16 0 -32 -5 -37z m44 29 c-3 -8 -6 -5 -6 6 -1 11 2 17 5 13 3 -3 4
-12 1 -19z m152 12 c-9 -5 -14 -20 -13 -39 1 -22 -2 -28 -13 -24 -11 4 -12 8
-2 13 7 5 9 16 5 26 -6 17 8 34 29 34 6 -1 3 -5 -6 -10z m363 -32 c-7 -7 -12
-8 -12 -2 0 14 12 26 19 19 2 -3 -1 -11 -7 -17z m-342 -7 c-8 -16 -6 -22 7
-31 16 -10 16 -11 1 -6 -10 3 -18 -2 -21 -12 -3 -9 -4 -1 -2 18 4 50 4 50 15
50 7 0 7 -6 0 -19z m50 5 c0 -2 -7 -7 -16 -10 -8 -3 -12 -2 -9 4 6 10 25 14
25 6z m-244 -31 c-9 -9 -16 -13 -16 -8 0 12 22 34 28 28 2 -2 -3 -11 -12 -20z
m254 4 c0 -5 -4 -7 -10 -4 -5 3 -10 1 -10 -6 0 -7 -3 -10 -6 -6 -8 7 4 27 17
27 5 0 9 -5 9 -11z m297 -11 c-3 -8 -6 -5 -6 6 -1 11 2 17 5 13 3 -3 4 -12 1
-19z m-407 -8 c0 -5 -2 -10 -4 -10 -3 0 -8 5 -11 10 -3 6 -1 10 4 10 6 0 11
-4 11 -10z m427 -22 c-3 -8 -6 -5 -6 6 -1 11 2 17 5 13 3 -3 4 -12 1 -19z
m-340 6 c-3 -3 -12 -4 -19 -1 -8 3 -5 6 6 6 11 1 17 -2 13 -5z m-32 -24 c3 -5
1 -10 -4 -10 -6 0 -11 5 -11 10 0 6 2 10 4 10 3 0 8 -4 11 -10z m-195 -12 c0
-4 -7 -8 -15 -8 -8 0 -15 4 -15 8 0 5 7 9 15 9 8 0 15 -4 15 -9z m174 -4 c3
-8 2 -12 -4 -9 -6 3 -10 10 -10 16 0 14 7 11 14 -7z m372 1 c13 17 14 17 14
-11 0 -49 -16 -61 -31 -22 -20 53 -21 54 -8 34 12 -19 12 -19 25 -1z m-796
-36 c0 -6 -4 -7 -10 -4 -5 3 -10 11 -10 16 0 6 5 7 10 4 6 -3 10 -11 10 -16z
m324 -31 c27 -17 28 -19 6 -13 -34 10 -50 24 -49 44 0 11 2 12 6 3 3 -8 19
-23 37 -34z m-295 -22 c-9 -10 -29 1 -28 17 0 9 2 9 6 0 9 -23 20 -13 17 15
-4 27 -4 27 5 2 4 -14 5 -29 0 -34z m738 22 c-3 -8 -6 -5 -6 6 -1 11 2 17 5
13 3 -3 4 -12 1 -19z m-252 -8 c-3 -5 -11 -10 -16 -10 -6 0 -7 5 -4 10 3 6 11
10 16 10 6 0 7 -4 4 -10z m-506 -55 c0 -5 -6 1 -14 15 -8 14 -14 30 -14 35 0
6 6 -1 14 -15 8 -14 14 -29 14 -35z m713 -71 c-18 -25 -33 -26 -40 -3 -3 11
-2 11 6 1 7 -10 11 -10 21 2 7 8 10 20 6 25 -3 7 0 8 9 5 14 -5 13 -9 -2 -30z
m-609 6 c-3 -12 -8 -19 -11 -16 -5 6 5 36 12 36 2 0 2 -9 -1 -20z m-23 -32 c0
-6 -7 -5 -15 2 -8 7 -15 17 -15 22 0 6 7 5 15 -2 8 -7 15 -17 15 -22z m37 -35
c0 -9 -4 -10 -14 -2 -7 6 -13 12 -13 14 0 1 6 2 13 2 8 0 14 -6 14 -14z m69 0
c-1 -7 -6 -16 -11 -20 -4 -4 -5 -2 -1 5 9 15 1 15 -24 2 -15 -8 -18 -6 -15 8
2 9 4 18 4 18 5 9 48 -4 47 -13z m419 -3 c-8 -13 1 -13 28 1 21 11 21 10 5 -7
-17 -17 -88 -27 -88 -12 0 4 9 8 20 8 11 0 20 5 20 10 0 6 5 10 11 10 5 0 7
-4 4 -10z m-315 -75 c0 -2 -9 -3 -19 -2 -11 0 -18 5 -15 9 4 6 34 0 34 -7z
m150 -5 c-8 -5 -31 -9 -50 -8 l-35 1 40 7 c59 11 61 11 45 0z"/>
<path d="M3132 3068 c-7 -7 -12 -27 -12 -45 0 -26 6 -36 31 -48 36 -19 33 -30
-4 -16 -28 11 -37 6 -37 -20 0 -38 84 -54 113 -21 28 31 21 69 -15 93 -32 20
-32 21 -6 15 21 -5 28 -2 33 14 3 11 3 24 0 30 -9 14 -88 13 -103 -2z"/>
<path d="M3280 3060 c-14 -14 -20 -33 -20 -67 0 -59 6 -68 53 -88 21 -9 40
-22 44 -30 3 -9 18 -15 39 -15 37 0 40 6 20 33 -12 16 -12 22 0 45 17 32 18
61 3 99 -13 36 -25 43 -76 43 -30 0 -49 -6 -63 -20z m88 -61 c3 -27 -20 -55
-38 -44 -11 7 -14 58 -3 69 14 14 38 0 41 -25z"/>
<path d="M3450 2990 l0 -90 60 0 c57 0 60 1 60 25 0 21 -5 25 -30 25 l-30 0 0
65 0 65 -30 0 -30 0 0 -90z"/>
<path d="M4370 2984 c0 -87 -2 -96 -20 -101 -11 -3 -20 -12 -20 -19 0 -22 30
-29 59 -13 25 14 26 19 31 122 l5 107 -27 0 -28 0 0 -96z"/>
<path d="M4466 2997 c-14 -47 -26 -88 -26 -91 0 -13 51 -5 56 9 4 8 16 15 29
15 13 0 25 -7 29 -15 7 -18 56 -20 56 -2 0 6 -11 46 -23 87 -23 74 -24 75 -59
78 l-35 3 -27 -84z m67 3 c3 -11 1 -20 -4 -20 -5 0 -9 9 -9 20 0 11 2 20 4 20
2 0 6 -9 9 -20z"/>
<path d="M4615 3059 c47 -146 51 -154 81 -154 27 0 30 4 56 80 33 101 33 95
-2 95 -27 0 -31 -4 -42 -47 l-12 -48 -14 48 c-12 43 -16 47 -43 47 -26 0 -29
-3 -24 -21z"/>
<path d="M4825 3068 c-15 -42 -45 -145 -45 -155 0 -18 49 -16 56 2 4 8 16 15
29 15 13 0 25 -7 29 -15 7 -18 56 -20 56 -3 0 7 -12 48 -26 90 -25 77 -26 78
-60 78 -19 0 -37 -6 -39 -12z m42 -80 c-3 -7 -5 -2 -5 12 0 14 2 19 5 13 2 -7
2 -19 0 -25z"/>
<path d="M5490 2580 c0 -63 -3 -81 -17 -88 -26 -15 -9 -40 22 -34 35 6 45 35
45 128 0 72 -1 74 -25 74 -25 0 -25 -1 -25 -80z"/>
<path d="M5595 2648 c-27 -74 -44 -132 -40 -137 12 -12 36 -8 48 7 16 22 47
27 47 9 0 -8 8 -17 18 -19 38 -10 41 1 15 78 -23 70 -27 74 -54 74 -16 0 -32
-6 -34 -12z m45 -69 c0 -5 -4 -9 -10 -9 -5 0 -10 7 -10 16 0 8 5 12 10 9 6 -3
10 -10 10 -16z"/>
<path d="M5711 2643 c0 -10 10 -45 22 -78 19 -51 26 -59 47 -60 22 0 28 9 52
78 l27 77 -29 0 c-25 0 -29 -4 -35 -40 -8 -47 -20 -45 -29 5 -6 29 -11 35 -31
35 -17 0 -25 -5 -24 -17z"/>
<path d="M5877 2586 c-14 -41 -23 -76 -21 -79 9 -9 54 6 54 18 0 15 38 14 48
-1 4 -6 18 -13 30 -17 19 -4 23 -2 19 11 -39 140 -40 142 -74 142 -30 0 -32
-3 -56 -74z m59 -13 c-10 -10 -19 5 -10 18 6 11 8 11 12 0 2 -7 1 -15 -2 -18z"/>
<path d="M5388 2396 c-23 -23 -11 -62 23 -76 41 -17 37 -34 -6 -26 -30 6 -35
4 -35 -12 0 -22 29 -31 75 -22 25 4 31 10 33 37 3 25 -2 35 -22 49 -33 21 -33
33 0 26 21 -4 25 -1 22 14 -4 25 -69 32 -90 10z"/>
<path d="M5534 2402 c-34 -22 -43 -84 -18 -120 21 -30 104 -33 104 -3 0 15 -7
19 -32 17 -29 -1 -33 2 -36 27 -4 37 12 55 43 49 20 -3 25 0 25 17 0 18 -6 21
-37 21 -21 0 -43 -4 -49 -8z"/>
<path d="M5650 2331 c0 -74 1 -79 20 -74 12 3 20 14 20 27 0 20 1 19 25 -7 42
-44 78 -33 45 14 -13 17 -16 30 -10 34 14 9 13 58 -2 73 -7 7 -31 12 -55 12
l-43 0 0 -79z m60 24 c0 -8 -4 -15 -10 -15 -5 0 -10 7 -10 15 0 8 5 15 10 15
6 0 10 -7 10 -15z"/>
<path d="M5790 2336 c0 -73 7 -89 38 -79 8 3 12 28 12 79 0 72 -1 74 -25 74
-24 0 -25 -2 -25 -74z"/>
<path d="M5870 2336 c0 -50 4 -75 13 -78 20 -8 35 2 30 20 -3 13 5 22 29 32
24 11 34 22 36 43 5 41 -14 57 -64 57 l-44 0 0 -74z m60 23 c0 -11 -4 -18 -10
-14 -5 3 -7 12 -3 20 7 21 13 19 13 -6z"/>
<path d="M5990 2395 c0 -8 9 -15 20 -15 18 0 20 -7 20 -59 0 -45 4 -60 16 -65
27 -10 34 3 34 65 0 46 3 59 15 59 8 0 15 7 15 15 0 12 -13 15 -60 15 -47 0
-60 -3 -60 -15z"/>
<path d="M1981 2509 c-27 -30 -29 -109 -3 -131 41 -37 112 -28 112 13 0 17 -4
20 -28 14 -34 -7 -55 13 -50 47 2 18 11 24 38 28 27 4 35 10 35 25 0 31 -76
34 -104 4z"/>
<path d="M2126 2514 c-28 -27 -20 -62 19 -85 19 -12 35 -23 35 -26 0 -3 -16
-2 -35 1 -32 6 -35 5 -35 -18 0 -19 7 -26 30 -31 45 -10 84 13 88 52 3 28 -2
36 -30 53 l-33 20 28 0 c31 0 48 27 26 41 -23 14 -76 10 -93 -7z"/>
<path d="M2266 2514 c-28 -27 -20 -62 19 -85 19 -12 35 -23 35 -26 0 -3 -16
-2 -35 1 -33 6 -35 5 -35 -19 0 -26 6 -28 63 -28 37 1 57 20 57 54 0 22 -8 34
-32 50 -33 21 -33 21 -6 16 21 -3 29 1 34 16 4 12 1 23 -7 28 -23 14 -76 10
-93 -7z"/>
<path d="M3214 2190 c-11 -4 -28 -20 -37 -34 -15 -23 -17 -73 -17 -512 0 -530
0 -527 57 -553 17 -8 259 -11 784 -11 825 0 801 -2 827 55 9 19 12 157 12 513
l0 487 -24 30 -24 30 -779 2 c-428 1 -787 -2 -799 -7z m636 -523 l0 -44 -67
-31 -67 -31 45 -19 c24 -11 54 -22 67 -26 18 -6 22 -14 22 -52 0 -24 -5 -44
-10 -44 -6 0 -66 25 -133 55 -112 50 -123 58 -122 81 0 23 14 33 125 90 69 35
128 64 133 64 4 0 7 -20 7 -43z m455 -19 c121 -61 126 -64 123 -92 -3 -27 -12
-33 -123 -83 -66 -29 -125 -53 -130 -53 -9 0 -12 34 -6 76 0 6 28 22 61 35 33
13 60 26 60 30 0 3 -28 19 -62 35 -59 27 -63 31 -64 64 -1 34 3 50 11 50 3 0
61 -28 130 -62z"/>
<path d="M3163 945 c-39 -33 -45 -47 -99 -210 -55 -170 -56 -176 -39 -195 18
-20 32 -20 975 -20 943 0 957 0 975 20 17 19 16 25 -39 195 -54 163 -60 177
-99 210 l-41 35 -796 0 -796 0 -41 -35z m290 -54 c30 -12 42 -43 27 -71 -9
-17 -20 -20 -84 -20 -80 0 -100 11 -94 52 6 41 89 62 151 39z m1235 -13 c7 -7
12 -21 12 -33 0 -45 4 -45 -560 -45 -564 0 -560 0 -560 45 0 12 5 26 12 33 17
17 1079 17 1096 0z m83 -178 c12 -7 19 -21 19 -40 0 -19 -7 -33 -19 -40 -27
-14 -1515 -14 -1542 0 -25 14 -26 65 -1 79 24 14 1516 15 1543 1z"/>
<path d="M1320 1345 c0 -78 2 -85 20 -85 13 0 20 7 21 20 1 11 2 26 3 33 0 6
11 13 24 15 19 3 22 -1 22 -32 0 -32 3 -36 25 -36 25 0 25 1 25 85 0 84 0 85
-25 85 -21 0 -25 -5 -25 -30 0 -25 -4 -30 -25 -30 -21 0 -25 5 -25 30 0 23 -4
30 -20 30 -18 0 -20 -7 -20 -85z"/>
<path d="M1480 1410 c0 -13 7 -20 19 -20 24 0 31 -19 31 -81 0 -42 3 -49 20
-49 18 0 20 7 20 61 0 52 3 62 20 66 11 3 20 14 20 24 0 17 -8 19 -65 19 -58
0 -65 -2 -65 -20z"/>
<path d="M1640 1346 c0 -78 2 -86 19 -86 16 0 21 8 23 38 l4 37 10 -35 c8 -27
16 -36 35 -38 22 -3 27 3 40 40 l14 43 3 -42 c3 -35 7 -43 23 -43 17 0 19 8
19 86 l0 85 -32 -3 c-29 -3 -34 -8 -45 -47 -7 -24 -15 -46 -17 -49 -3 -2 -11
18 -19 44 -13 44 -17 49 -45 52 l-32 3 0 -85z"/>
<path d="M1870 1345 l0 -85 55 0 c48 0 55 3 55 19 0 15 -8 21 -32 23 l-33 3 0
63 c0 58 -2 62 -22 62 -22 0 -23 -4 -23 -85z"/>
<path d="M5960 1695 c0 -8 7 -15 16 -15 14 0 14 3 4 15 -7 8 -14 15 -16 15 -2
0 -4 -7 -4 -15z"/>
<path d="M6591 1234 c0 -11 3 -14 6 -6 3 7 2 16 -1 19 -3 4 -6 -2 -5 -13z"/>
</g>
</svg>
