<svg id="SvgjsSvg1001" width="288" height="288" xmlns="http://www.w3.org/2000/svg" version="1.1" xmlns:xlink="http://www.w3.org/1999/xlink" xmlns:svgjs="http://svgjs.com/svgjs"><defs id="SvgjsDefs1002"></defs><g id="SvgjsG1008"><svg xmlns="http://www.w3.org/2000/svg" width="288" height="288" version="1.0" viewBox="0 0 256 256"><g transform="matrix(.1 0 0 -.1 0 256)" fill="#2d6cdf" class="color000 svgShape"><path d="M313 2048c-44-50-84-122-113-205-27-76-30-97-28-177l3-90 40-19c22-11 49-23 60-27 11-5 42-18 68-29 27-12 83-35 125-52 42-17 91-36 107-43 17-7 66-28 110-46 44-18 103-43 130-55 28-13 53-21 58-18 4 2 7 42 7 88 0 78 13 152 39 217 18 47 81 135 106 148 33 17 31 22-7 39-18 7-46 19-63 26-16 7-70 30-120 50-96 39-133 55-205 87-25 11-55 24-67 29-69 27-128 52-187 80-22 11-40 19-41 19-1 0-11-10-22-22zM1106 1654c-68-69-106-172-106-291l0-83 45-21c49-23 65-56 65-132 0-60 54-162 104-195 54-37 116-56 155-48 17 3 46 9 64 12 31 7 82 51 122 107 19 27 22 27 50 13 67-32 69-31 83 27 6 29 12 62 12 72 0 47 69 195 104 225 24 19 19 34-16 49-18 8-60 27-93 42-33 15-82 37-110 49-55 24-113 50-190 85-27 13-72 33-100 45-27 12-74 33-103 46-29 13-54 24-56 24-2 0-15-12-30-26zM1862 1257c-24-25-51-84-63-137-4-19-11-46-14-60-12-47 9-75 72-99 62-24 87-34 131-52 15-7 36-15 47-19 11-4 83-33 159-64 107-43 142-53 153-45 7 7 27 40 43 74 25 52 30 76 30 134l0 72-47 20c-27 11-64 27-83 36-45 20-80 34-105 43-23 8-54 21-105 43-19 8-60 25-90 38-30 12-59 26-64 31-17 14-42 9-64-15zM1156 728c-30-40-72-95-92-123-21-27-80-106-132-174-51-68-96-130-99-137-7-19 75-19 99-1 9 8 74 67 145 133 180 169 209 195 217 187 3-3 6-123 6-265l0-258 70 0 70 0 0 254c0 161 4 257 10 261 6 3 92-68 193-159 175-159 184-166 225-166 23 0 42 3 42 6 0 3-26 40-58 82-143 188-239 317-270 360-17 26-40 53-49 60-12 8-63 12-169 12l-153 0-55-72z" fill="#2d6cdf" class="color000 svgShape"></path></g></svg></g></svg>